<svg id="Layer_1" data-name="Layer 1" xmlns="http://www.w3.org/2000/svg" viewBox="0 0 464.65 86.19"><path d="M52.63,33.94a8.58,8.58,0,0,0-4.39-1.07,10.2,10.2,0,0,0-5.5,1.55,15.4,15.4,0,0,0-4.26,3.95,23.62,23.62,0,0,0-2.84,5V33.14a32.6,32.6,0,0,1-4.83.93,47.19,47.19,0,0,1-5.63.31c-1.77,0-3.61-.09-5.5-.27V36c2.49,0,4.17.64,5.06,1.91s1.33,3.24,1.33,5.9V71.62q0,3.72-1.47,5.06C23.63,77.56,22,78,19.68,78v1.86l4.88-.22q3.2-.14,6.39-.14c2.77,0,5.42,0,7.93.14l5.81.22V78A12.71,12.71,0,0,1,38,76.54q-2.4-1.46-2.4-5.81V50.34A17,17,0,0,1,37.06,44a17.67,17.67,0,0,1,3.86-5.9,8.43,8.43,0,0,1,5.63-2.62,3,3,0,0,1,2.13.62,8.2,8.2,0,0,0-2.35,2.18,5.4,5.4,0,0,0-1,3.32,4.56,4.56,0,0,0,1.55,3.64,5.64,5.64,0,0,0,3.77,1.33,5.14,5.14,0,0,0,4.12-1.82,6.52,6.52,0,0,0,1.56-4.39,7.08,7.08,0,0,0-3.68-6.38Z" transform="translate(-19.68 -10.35)" style="fill:#ff3602"/><path d="M89.52,74.46a14.47,14.47,0,0,1-6.88,1.77,10.66,10.66,0,0,1-6.12-2.08,14.54,14.54,0,0,1-4.87-6.25,25.24,25.24,0,0,1-1.86-10.29c0-.94,0-1.91.08-2.88,0-.81.1-1.55.15-2.26H96.83q0-10.2-4.43-14.9t-12.24-4.7a18.92,18.92,0,0,0-18,11.53,32,32,0,0,0-2.57,13.48,28.77,28.77,0,0,0,2.48,12.41,18.3,18.3,0,0,0,7.09,8A20.51,20.51,0,0,0,80,81.11a17.09,17.09,0,0,0,8.07-1.82,16.79,16.79,0,0,0,5.68-4.74A22.21,22.21,0,0,0,97,68.61l-1.77-.71Q92.84,72.69,89.52,74.46ZM79.81,34.64a5.29,5.29,0,0,1,4.43,2.22,14.93,14.93,0,0,1,2.48,5.9,34.56,34.56,0,0,1,.71,8H69.86q.67-8.23,3.34-12.1Q76,34.65,79.81,34.64Z" transform="translate(-19.68 -10.35)" style="fill:#ff3602"/><path d="M140.64,76.94a3.71,3.71,0,0,1-1.95.53,2,2,0,0,1-2-1,6.89,6.89,0,0,1-.53-3.11V48.92a33.44,33.44,0,0,0-.71-7.4,9.77,9.77,0,0,0-2.92-5.1,11,11,0,0,0-4.66-2.71,23,23,0,0,0-6.61-.84,26.25,26.25,0,0,0-7.4,1,20.1,20.1,0,0,0-5.45,2.39,14.19,14.19,0,0,0-3.15,2.84,6.05,6.05,0,0,0-1.2,3.9,6.39,6.39,0,0,0,1.33,4,4.81,4.81,0,0,0,4.08,1.73,6.08,6.08,0,0,0,4.12-1.41,4.89,4.89,0,0,0,1.65-3.91A5.82,5.82,0,0,0,114,39.57a6.27,6.27,0,0,0-3.24-2.09,6.53,6.53,0,0,1,3.64-2.26,18.09,18.09,0,0,1,4.34-.58,9.85,9.85,0,0,1,4.13.8,6,6,0,0,1,2.75,2.71,11,11,0,0,1,1,5.1v6a4,4,0,0,1-1.81,3.37A19,19,0,0,1,120.2,55q-2.81,1-5.94,2.12a39.55,39.55,0,0,0-6,2.66,14.13,14.13,0,0,0-4.56,3.95A10.14,10.14,0,0,0,102,69.94a11.07,11.07,0,0,0,2.62,7.58c1.74,2,4.57,3,8.47,3a17.47,17.47,0,0,0,7.49-1.64,14.26,14.26,0,0,0,6.07-6,9.79,9.79,0,0,0,1.65,5.32q1.54,2.31,6.42,2.31a11.5,11.5,0,0,0,4.84-.89,18.65,18.65,0,0,0,3.77-2.39l-.89-1.51A15.85,15.85,0,0,1,140.64,76.94Zm-14-6.38A12.83,12.83,0,0,1,122.46,75a9,9,0,0,1-4.52,1.28,6.4,6.4,0,0,1-4.71-1.86q-1.86-1.86-1.86-5.85a9.92,9.92,0,0,1,1.86-6.39,14.47,14.47,0,0,1,4.48-3.68c1.75-.91,3.46-1.76,5.15-2.52a8.71,8.71,0,0,0,3.76-3Z" transform="translate(-19.68 -10.35)" style="fill:#ff3602"/><path d="M187.06,76.1q-1.38-1.91-1.38-5.9V10.35a32.67,32.67,0,0,1-4.87.93,47.71,47.71,0,0,1-5.59.31c-1.77,0-3.61-.09-5.5-.27v1.87q3.63,0,5,1.9c.92,1.27,1.37,3.24,1.37,5.9V37.47a8.67,8.67,0,0,0-3.23-2.91,15.16,15.16,0,0,0-7.14-1.69,19.4,19.4,0,0,0-10,2.66,18.81,18.81,0,0,0-7.23,8q-2.7,5.36-2.7,13.43A35.55,35.55,0,0,0,148,70.51a16.5,16.5,0,0,0,6.34,8,17.32,17.32,0,0,0,9.53,2.62,12.48,12.48,0,0,0,9-3.24,13.12,13.12,0,0,0,3.19-5v8a24.11,24.11,0,0,1,4.84-1,54.92,54.92,0,0,1,5.63-.27c1.83,0,3.66.09,5.5.27V78Q188.43,78,187.06,76.1Zm-14-.93a8.52,8.52,0,0,1-12.15.71A13.83,13.83,0,0,1,157.22,69,47.83,47.83,0,0,1,156,57q-.09-11.18,3.1-16.54t8.25-5.36a10.22,10.22,0,0,1,5.41,1.46,8.78,8.78,0,0,1,3.36,4.08v28A12.62,12.62,0,0,1,173.05,75.17Z" transform="translate(-19.68 -10.35)" style="fill:#ff3602"/><path d="M235.12,34.29c-1.16.06-2.38.09-3.68.09s-2.56,0-3.77-.09l-4-.18v1.78c3,.23,5,1.12,6,2.66s.81,4.08-.49,7.62L220.53,69,209.8,42.63Q208.46,39.35,209,38a2.53,2.53,0,0,1,2.13-1.68,20.09,20.09,0,0,1,3.77-.32V34.11l-5.72.36c-2,.12-4.07.17-6.08.17-1.77,0-3.49,0-5.14-.13s-3.22-.22-4.7-.4V36a6.29,6.29,0,0,1,2.61.76c1,.5,2.12,1.91,3.24,4.21L216,81l-2.57,6.86a12.48,12.48,0,0,1-3.28,5.28,6.74,6.74,0,0,1-4.44,1.64h-.44a1.6,1.6,0,0,1-.53-.09,5.63,5.63,0,0,0,2.17-1.78,4.53,4.53,0,0,0,.84-2.74,4.21,4.21,0,0,0-1.51-3.51,5.77,5.77,0,0,0-3.72-1.2,5.59,5.59,0,0,0-4,1.42A4.88,4.88,0,0,0,197,90.6a5.09,5.09,0,0,0,1.07,3.28,6.49,6.49,0,0,0,2.7,2,9.09,9.09,0,0,0,3.5.67,15,15,0,0,0,3.9-.53,7.77,7.77,0,0,0,3.29-1.78A15,15,0,0,0,215.3,88l3.19-8.34,13.83-37.06a14.94,14.94,0,0,1,2.75-5,5.44,5.44,0,0,1,3.11-1.73V34.11Z" transform="translate(-19.68 -10.35)" style="fill:#ff3602"/><path d="M311.16,34.11l-3.06.18c-1.16.06-2.38.09-3.68.09-.89,0-1.76,0-2.62-.05l-2.57-.08c-.86,0-1.82-.08-2.88-.14v1.78c3.07.23,5.1,1.12,6.07,2.66s.87,4.08-.31,7.62L294.7,69.09,281.8,33.85c-.59,0-1.16,0-1.73,0a11.07,11.07,0,0,1-1.72,0L266.66,68.06,258,42.63q-1.16-3.37-.67-4.7a2.57,2.57,0,0,1,2.13-1.64,20.17,20.17,0,0,1,3.77-.32V34.11l-5.72.36c-2,.12-4,.17-5.81.17s-3.5,0-5-.13-3-.22-4.39-.4V36a5.36,5.36,0,0,1,2.35.71q1.38.72,2.8,4.26l14.36,39.28h2.93l11.68-34.7,13.41,34.7h2.93l12.5-37.59A12.08,12.08,0,0,1,308,37.57a6,6,0,0,1,3.2-1.68Z" transform="translate(-19.68 -10.35)" style="fill:#414042"/><path d="M395.53,33.94a8.58,8.58,0,0,0-4.39-1.07,10.2,10.2,0,0,0-5.5,1.55,15.4,15.4,0,0,0-4.26,3.95,23.62,23.62,0,0,0-2.84,5V33.14a32.6,32.6,0,0,1-4.83.93,47.19,47.19,0,0,1-5.63.31c-1.77,0-3.61-.09-5.5-.27V36c2.49,0,4.17.64,5.06,1.91s1.33,3.24,1.33,5.9V71.62q0,3.72-1.47,5.06c-1,.88-2.61,1.33-4.92,1.33v1.86l4.88-.22q3.19-.14,6.38-.14,4.17,0,7.94.14l5.81.22V78a12.68,12.68,0,0,1-6.65-1.47q-2.4-1.46-2.4-5.81V50.34A17,17,0,0,1,380,44a17.67,17.67,0,0,1,3.86-5.9,8.43,8.43,0,0,1,5.63-2.62,3,3,0,0,1,2.13.62,8.2,8.2,0,0,0-2.35,2.18,5.4,5.4,0,0,0-1,3.32,4.56,4.56,0,0,0,1.55,3.64,5.64,5.64,0,0,0,3.77,1.33,5.15,5.15,0,0,0,4.12-1.82,6.52,6.52,0,0,0,1.56-4.39,7.13,7.13,0,0,0-3.68-6.38Z" transform="translate(-19.68 -10.35)" style="fill:#414042"/><path d="M442,73.39,426.39,50.48l9.08-9.54a18.92,18.92,0,0,1,4.35-3.46,13.18,13.18,0,0,1,4.61-1.59V34.11c-.59.06-1.36.12-2.3.18s-2,.1-3.06.13-2.18,0-3.24,0c-1.3,0-2.91,0-4.83-.14l-5.28-.22v1.78a11.41,11.41,0,0,1,4.83,1,3,3,0,0,1,1.82,2.83c0,1.28-.94,2.86-2.84,4.75l-6.65,6.74a8.69,8.69,0,0,1-3.06,2.3,14.06,14.06,0,0,1-3.76.92V10.35a32.81,32.81,0,0,1-4.88.93,47.71,47.71,0,0,1-5.59.31c-1.77,0-3.6-.09-5.5-.27v1.87q3.65,0,5,1.9t1.38,5.9V71.62q0,3.72-1.46,5.06c-1,.88-2.62,1.33-4.93,1.33v1.86c1.07-.06,2.68-.13,4.84-.22s4.27-.14,6.34-.14,4,0,6,.14,3.47.16,4.48.22V78c-2.07,0-3.53-.45-4.39-1.33s-1.28-2.58-1.28-5.06V56.31a6.29,6.29,0,0,1,5.85,3.43L431.66,75c.59.83.67,1.54.22,2.13a2.87,2.87,0,0,1-2.44.89v1.86c.95-.06,2.43-.13,4.44-.22s4-.14,5.94-.14c1.48,0,3,0,4.48.14s2.64.16,3.41.22V78a6,6,0,0,1-3.1-1.56A20.61,20.61,0,0,1,442,73.39Z" transform="translate(-19.68 -10.35)" style="fill:#414042"/><path d="M481,59.65A54.85,54.85,0,0,0,472.72,53l-5.46-3.64a18.73,18.73,0,0,1-4.12-3.63,7.08,7.08,0,0,1-1.59-4.61,6,6,0,0,1,1.95-4.83,7.27,7.27,0,0,1,4.87-1.65,9.54,9.54,0,0,1,6.34,2,13.22,13.22,0,0,1,3.73,5.15,29.36,29.36,0,0,1,1.82,6.38h1.95c0-3.84,0-6.93.08-9.26s.15-4.33.27-6h-1.95q-.71,5.32-3.64,3a18.07,18.07,0,0,0-3.76-2A15.74,15.74,0,0,0,467,32.87a18.08,18.08,0,0,0-6.83,1.29A11.62,11.62,0,0,0,455.12,38a10.71,10.71,0,0,0-1.91,6.57,11.31,11.31,0,0,0,1.68,6.25,19.05,19.05,0,0,0,4.39,4.7c1.81,1.39,3.71,2.79,5.72,4.21a54.67,54.67,0,0,1,7,5.36,8.41,8.41,0,0,1,2.71,6.43q0,4.26-2.4,6a8.26,8.26,0,0,1-4.87,1.73,10,10,0,0,1-6.7-2.09,12.72,12.72,0,0,1-3.68-5.8,45.09,45.09,0,0,1-1.86-8.61h-2c0,4.5,0,8.1-.09,10.82s-.15,5-.27,6.92h2a5.87,5.87,0,0,1,1.06-2.84,1.09,1.09,0,0,1,1.6-.18l1.81,1.11c.62.39,1.26.76,1.91,1.11a22.29,22.29,0,0,0,3.46,1,18.74,18.74,0,0,0,4,.4,20.33,20.33,0,0,0,7.8-1.46,13.57,13.57,0,0,0,5.72-4.3,11.05,11.05,0,0,0,2.17-6.92A11.86,11.86,0,0,0,481,59.65Z" transform="translate(-19.68 -10.35)" style="fill:#414042"/><path d="M357.17,54.54c-.12-.89-.29-1.79-.45-2.64l2.81-2.47a13.71,13.71,0,0,0-.79-2.08L355,47.24a20.35,20.35,0,0,0-1.35-2.3l1.79-3.26A17.43,17.43,0,0,0,354,40l-3.54,1.18c-.68-.62-1.35-1.18-2.08-1.74l.56-3.71a20,20,0,0,0-1.91-1.13L344.13,37a21.28,21.28,0,0,0-2.53-.9l-.73-3.66c-.73-.16-1.46-.28-2.19-.39l-2,3.2a5.6,5.6,0,0,0-1.35-.11,10.17,10.17,0,0,0-1.35.06l-2-3.21c-.73.12-1.46.23-2.19.4L329.12,36c-.84.28-1.68.56-2.52.9l-2.93-2.36c-.67.34-1.29.73-1.91,1.12l.57,3.71a27,27,0,0,0-2.08,1.74l-3.54-1.18c-.51.57-1,1.13-1.41,1.69l1.8,3.26a18.43,18.43,0,0,0-1.35,2.3L312,47.3a21.11,21.11,0,0,0-.78,2.07L314,51.85a18.64,18.64,0,0,0-.45,2.64l-3.49,1.4v2.25l3.49,1.35c.11.9.28,1.8.45,2.64L311.2,64.6a13.28,13.28,0,0,0,.78,2.08l3.77.12a18.43,18.43,0,0,0,1.35,2.3l-1.8,3.26c.45.56.9,1.18,1.4,1.69l3.54-1.18c.68.61,1.35,1.18,2.08,1.74l-.56,3.71c.62.39,1.24.78,1.91,1.12l2.92-2.36a21.93,21.93,0,0,0,2.53.9l.73,3.65c.73.17,1.47.28,2.2.4l2-3.21c.45,0,.9.06,1.35.06a10.17,10.17,0,0,0,1.35-.06l2,3.21c.73-.12,1.46-.23,2.19-.4L341.6,78c.84-.28,1.69-.56,2.53-.9l2.92,2.36c.67-.34,1.29-.73,1.91-1.12l-.56-3.71c.73-.56,1.4-1.13,2.08-1.74L354,74.05c.5-.57,1-1.13,1.4-1.69l-1.79-3.26A19.67,19.67,0,0,0,355,66.8l3.77-.12c.28-.67.56-1.35.79-2.08l-2.81-2.47a22,22,0,0,0,.45-2.64l3.48-1.35V55.89Zm-21.81,20A17.59,17.59,0,1,1,353,57,17.59,17.59,0,0,1,335.36,74.58Z" transform="translate(-19.68 -10.35)" style="fill:#414042"/><path d="M344.13,56.75l-14.42-7.21a.29.29,0,0,0-.27,0,.28.28,0,0,0-.13.23V64.21a.28.28,0,0,0,.13.23.42.42,0,0,0,.15,0,.27.27,0,0,0,.12,0l14.42-7.21a.26.26,0,0,0,.15-.25A.26.26,0,0,0,344.13,56.75Z" transform="translate(-19.68 -10.35)" style="fill:#ff3602"/></svg>